<svg xmlns="http://www.w3.org/2000/svg" xmlns:xlink="http://www.w3.org/1999/xlink" viewBox="0 0 333.23 333.03"><defs><style>.cls-1{fill:none;}.cls-2{fill:url(#radial-gradient);}.cls-3{isolation:isolate;}.cls-4{clip-path:url(#clip-path);}.cls-5{fill:#333;}.cls-6{fill:url(#radial-gradient-2);}.cls-7{fill:url(#linear-gradient);}.cls-8{fill:url(#linear-gradient-2);}.cls-9{fill:url(#linear-gradient-3);}.cls-10{fill:url(#radial-gradient-3);}.cls-11{fill:url(#linear-gradient-4);}.cls-12{fill:url(#radial-gradient-4);}.cls-13{fill:url(#radial-gradient-5);}.cls-14{fill:url(#linear-gradient-5);}.cls-15{fill:url(#radial-gradient-6);}.cls-16{fill:url(#linear-gradient-6);}.cls-17{fill:url(#radial-gradient-7);}.cls-18{fill:url(#White_Black);}.cls-19{fill:url(#linear-gradient-7);}.cls-20{fill:url(#White_Black-2);}.cls-21{fill:url(#White_Black-3);}</style><radialGradient id="radial-gradient" cx="180.41" cy="139.62" r="121.47" gradientTransform="translate(-9.47 19.18) scale(1 1.03)" gradientUnits="userSpaceOnUse"><stop offset="0" stop-color="#fff" stop-opacity="0"/><stop offset="0.2" stop-color="#f0a5be" stop-opacity="0.4"/><stop offset="0.43" stop-color="#e04378" stop-opacity="0.83"/><stop offset="0.54" stop-color="#da1c5c"/><stop offset="0.61" stop-color="#d61b5a"/><stop offset="0.68" stop-color="#cb1a54"/><stop offset="0.74" stop-color="#b7174b"/><stop offset="0.81" stop-color="#9c133d"/><stop offset="0.88" stop-color="#790d2b"/><stop offset="0.94" stop-color="#4f0716"/><stop offset="1" stop-color="#230000"/></radialGradient><clipPath id="clip-path"><path class="cls-1" d="M245.34,205.83l-40.79-22.69.38.21.38.21.38.21.38.2,41.36,23-.52-.29-.52-.28-.53-.29Z"/></clipPath><radialGradient id="radial-gradient-2" cx="64.35" cy="93.59" r="0" gradientUnits="userSpaceOnUse"><stop offset="0" stop-color="#da1c5c"/><stop offset="0.11" stop-color="#d51b5a"/><stop offset="0.24" stop-color="#c51953"/><stop offset="0.4" stop-color="#ab1648"/><stop offset="0.56" stop-color="#871139"/><stop offset="0.73" stop-color="#580b25"/><stop offset="0.91" stop-color="#20040e"/><stop offset="1"/></radialGradient><linearGradient id="linear-gradient" x1="219.83" y1="69.23" x2="360.96" y2="69.23" gradientTransform="matrix(0, 0.64, -0.61, 0, 293.84, -55.67)" gradientUnits="userSpaceOnUse"><stop offset="0" stop-color="#fff" stop-opacity="0.9"/><stop offset="0.04" stop-color="#fff" stop-opacity="0.78"/><stop offset="0.11" stop-color="#fff" stop-opacity="0.6"/><stop offset="0.18" stop-color="#fff" stop-opacity="0.44"/><stop offset="0.25" stop-color="#fff" stop-opacity="0.3"/><stop offset="0.33" stop-color="#fff" stop-opacity="0.19"/><stop offset="0.41" stop-color="#fff" stop-opacity="0.11"/><stop offset="0.51" stop-color="#fff" stop-opacity="0.05"/><stop offset="0.61" stop-color="#fff" stop-opacity="0.01"/><stop offset="0.77" stop-color="#fff" stop-opacity="0"/></linearGradient><linearGradient id="linear-gradient-2" x1="-55.64" y1="500.8" x2="85.48" y2="500.8" gradientTransform="translate(144.71 563.35) rotate(180) scale(0.73 0.67)" xlink:href="#linear-gradient"/><linearGradient id="linear-gradient-3" x1="198.82" y1="795.91" x2="339.94" y2="795.91" gradientTransform="translate(-72 -458.47) scale(0.73 0.67)" xlink:href="#linear-gradient"/><radialGradient id="radial-gradient-3" cx="289.11" cy="103.61" fx="334.4435936399989" fy="115.20619886109942" r="56.3" gradientTransform="translate(12.44 -19.61) rotate(6.67) scale(1 0.87)" gradientUnits="userSpaceOnUse"><stop offset="0.35" stop-color="#da1c5c"/><stop offset="0.43" stop-color="#d51b5a"/><stop offset="0.52" stop-color="#c81a54"/><stop offset="0.61" stop-color="#b1174b"/><stop offset="0.7" stop-color="#91133d"/><stop offset="0.8" stop-color="#690d2c"/><stop offset="0.9" stop-color="#380718"/><stop offset="1"/></radialGradient><linearGradient id="linear-gradient-4" x1="232.05" y1="87.95" x2="333.23" y2="87.95" gradientUnits="userSpaceOnUse"><stop offset="0" stop-color="#77797b"/><stop offset="0.51" stop-color="#efeff0"/><stop offset="0.68" stop-color="#bebfc0"/><stop offset="0.89" stop-color="#848688"/><stop offset="1" stop-color="#6e7072"/></linearGradient><radialGradient id="radial-gradient-4" cx="60.52" cy="92.82" r="0" xlink:href="#radial-gradient-2"/><radialGradient id="radial-gradient-5" cx="83.09" cy="64.56" fx="106.20347893253512" fy="81.63732000118605" r="58.78" gradientTransform="matrix(-0.33, -0.95, 0.64, -0.22, 68.75, 157.36)" gradientUnits="userSpaceOnUse"><stop offset="0.28" stop-color="#da1c5c"/><stop offset="0.45" stop-color="#d71c5b"/><stop offset="0.56" stop-color="#cf1b57"/><stop offset="0.64" stop-color="#c11951"/><stop offset="0.72" stop-color="#ac1649"/><stop offset="0.78" stop-color="#92133e"/><stop offset="0.85" stop-color="#720f30"/><stop offset="0.91" stop-color="#4b0a20"/><stop offset="0.96" stop-color="#20040d"/><stop offset="1"/></radialGradient><linearGradient id="linear-gradient-5" x1="75.52" y1="128.82" x2="60.33" y2="40.1" gradientUnits="userSpaceOnUse"><stop offset="0" stop-color="#77797b"/><stop offset="0.16" stop-color="#a9aaac"/><stop offset="0.31" stop-color="#cfd0d1"/><stop offset="0.43" stop-color="#e6e7e8"/><stop offset="0.51" stop-color="#efeff0"/><stop offset="0.59" stop-color="#ebebec"/><stop offset="0.68" stop-color="#dfdfe0"/><stop offset="0.77" stop-color="#cacbcc"/><stop offset="0.85" stop-color="#adaeb0"/><stop offset="0.94" stop-color="#898a8c"/><stop offset="1" stop-color="#6e7072"/></linearGradient><radialGradient id="radial-gradient-6" cx="133.53" cy="273.27" fx="77.61233205540651" fy="291.2791943547491" r="58.75" gradientUnits="userSpaceOnUse"><stop offset="0" stop-color="#da1c5c"/><stop offset="0.2" stop-color="#d71c5b"/><stop offset="0.34" stop-color="#ce1a57"/><stop offset="0.46" stop-color="#be1850"/><stop offset="0.58" stop-color="#a81647"/><stop offset="0.68" stop-color="#8b123b"/><stop offset="0.78" stop-color="#680d2c"/><stop offset="0.88" stop-color="#3e081a"/><stop offset="0.97" stop-color="#0f0206"/><stop offset="1"/></radialGradient><linearGradient id="linear-gradient-6" x1="97.8" y1="319.43" x2="204.01" y2="229.3" xlink:href="#linear-gradient-5"/><radialGradient id="radial-gradient-7" cx="170.08" cy="166.42" r="164.55" gradientTransform="translate(-1.14)" gradientUnits="userSpaceOnUse"><stop offset="0" stop-color="#e6e7e8"/><stop offset="0.4" stop-color="#bcbec0"/><stop offset="1" stop-color="#231f20"/></radialGradient><linearGradient id="White_Black" x1="169.28" y1="31.23" x2="240.99" y2="91.5" gradientUnits="userSpaceOnUse"><stop offset="0" stop-color="#fff"/><stop offset="1" stop-color="#231f20"/></linearGradient><linearGradient id="linear-gradient-7" x1="127.13" y1="137.33" x2="-56.98" y2="127.58" gradientUnits="userSpaceOnUse"><stop offset="0" stop-color="#58595b"/><stop offset="0.97" stop-color="#d2d3d5"/></linearGradient><linearGradient id="White_Black-2" x1="241.67" y1="228.35" x2="320.54" y2="218.78" xlink:href="#White_Black"/><linearGradient id="White_Black-3" x1="103.96" y1="250.29" x2="310.14" y2="339.74" xlink:href="#White_Black"/></defs><g id="Layer_2" data-name="Layer 2"><g id="Layer_1-2" data-name="Layer 1"><ellipse class="cls-2" cx="171.53" cy="162.49" rx="123" ry="123.5"/><g class="cls-3"><g class="cls-4"><g class="cls-3"><path class="cls-5" d="M245.34,205.83l-40.79-22.69.38.21.38.21.38.21.38.2,41.36,23-.52-.29-.52-.28-.53-.29-.52-.29"/></g></g></g><polygon class="cls-6" points="64.35 93.59 64.35 93.59 64.35 93.59 64.35 93.59"/><ellipse class="cls-7" cx="252.53" cy="131.49" rx="23.87" ry="45.43" transform="matrix(0.64, -0.76, 0.76, 0.64, -10.74, 239.88)"/><ellipse class="cls-8" cx="133.77" cy="227.09" rx="51.76" ry="26.19"/><ellipse class="cls-9" cx="125.6" cy="75.94" rx="51.76" ry="26.19" transform="translate(-0.62 150.85) rotate(-61.85)"/><path class="cls-10" d="M311,89.72A175.72,175.72,0,0,0,289.69,79a125.65,125.65,0,0,0-20.12-6.64,81,81,0,0,0-18.26-2.27,54.86,54.86,0,0,0-8.56.64A43.39,43.39,0,0,0,235,72.63a34.81,34.81,0,0,0-6.81,3.28,31.05,31.05,0,0,0-5.76,4.65c-.43.43-.84.88-1.23,1.33s-.78.93-1.15,1.4-.71,1-1.05,1.47-.67,1-1,1.52l-13.27,22.1c.22-.37.46-.74.7-1.1s.51-.72.77-1.06.54-.69.83-1,.58-.65.89-1a23,23,0,0,1,4.18-3.37,25.58,25.58,0,0,1,4.94-2.37,30.7,30.7,0,0,1,5.61-1.41,40,40,0,0,1,6.21-.46,58.52,58.52,0,0,1,13.23,1.64,92.4,92.4,0,0,1,14.6,4.81,128.44,128.44,0,0,1,15.41,7.81,159,159,0,0,1,15.7,10.62l44.77-17.13A220,220,0,0,0,311,89.72Z"/><path class="cls-11" d="M238.52,72.4a54.86,54.86,0,0,1,8.56-.64A81,81,0,0,1,265.34,74a125.75,125.75,0,0,1,20.13,6.64,175.61,175.61,0,0,1,21.26,10.76A221.89,221.89,0,0,1,328.32,106l4.91-1.87a219.56,219.56,0,0,0-21.65-14.65,176.45,176.45,0,0,0-21.26-10.77,126.75,126.75,0,0,0-20.13-6.64,81.53,81.53,0,0,0-18.26-2.26,54.86,54.86,0,0,0-8.56.64,42.76,42.76,0,0,0-7.74,1.94,37.91,37.91,0,0,0-3.58,1.49A44.93,44.93,0,0,1,238.52,72.4Z"/><polygon class="cls-12" points="60.52 92.82 60.52 92.82 60.52 92.82 60.52 92.82"/><path class="cls-13" d="M106.52,137.88l-.29-.14-.29-.14-.29-.15c-.48-.26-1-.53-1.42-.82s-1-.69-1.53-1.06l-.44-.35c-.35-.28-.69-.55-1-.85-.17-.15-.34-.3-.5-.46s-.6-.57-.89-.87-.31-.33-.47-.5c-.3-.33-.59-.68-.87-1-.13-.15-.25-.29-.37-.45-.4-.5-.79-1-1.15-1.57l-.12-.19c-.32-.49-.64-1-.94-1.51-.11-.19-.21-.39-.32-.59-.23-.4-.44-.81-.65-1.23l-.33-.68c-.2-.42-.39-.85-.57-1.28-.1-.23-.2-.46-.29-.69-.19-.46-.36-.92-.53-1.39-.07-.21-.15-.41-.22-.62-.23-.68-.45-1.37-.66-2.08a2.68,2.68,0,0,0-.07-.27c-.17-.63-.34-1.26-.49-1.91-.06-.25-.11-.51-.17-.77-.11-.49-.22-1-.32-1.51l-.15-.87c-.09-.52-.18-1-.26-1.57l-.12-.89c-.08-.57-.15-1.15-.21-1.73,0-.26-.06-.52-.08-.78-.08-.85-.15-1.7-.2-2.57a1.09,1.09,0,0,0,0-.18c0-.81-.07-1.64-.09-2.47,0-.24,0-.48,0-.72,0-.84,0-1.68,0-2.53,0-.28,0-.55,0-.82,0-1,.06-2.12.13-3.2l0-.46c.06-1,.14-1.91.23-2.88,0-.3,0-.61.08-.91.11-1.06.23-2.13.37-3.21a1.36,1.36,0,0,0,0-.2c.16-1.19.35-2.4.55-3.62l.15-.91c.2-1.19.42-2.4.67-3.62,0,0,0-.06,0-.1.25-1.24.53-2.5.82-3.77.08-.31.15-.63.23-.94.3-1.28.62-2.56,1-3.85L66.06,36.06c-.48,1.78-.92,3.54-1.34,5.3,0,.22-.11.44-.17.66s-.09.43-.14.64c-.4,1.75-.79,3.49-1.13,5.2v0s0,.07,0,.1c-.34,1.69-.64,3.35-.92,5,0,.21-.09.43-.12.65s-.06.4-.09.6c-.28,1.68-.54,3.35-.75,5v0a1.49,1.49,0,0,0,0,.21c-.2,1.5-.36,3-.51,4.44,0,.2,0,.4-.07.6s0,.44,0,.65c0,.43-.09.85-.12,1.27-.08.92-.14,1.82-.2,2.71,0,.17,0,.34,0,.5a.66.66,0,0,0,0,.14c-.09,1.49-.14,3-.18,4.41,0,.14,0,.29,0,.44v.68c0,1.18,0,2.34,0,3.5,0,.22,0,.44,0,.66s0,.22,0,.33c0,1.15.07,2.29.13,3.42a1.48,1.48,0,0,1,0,.21v0c.07,1.2.16,2.38.27,3.55a2.45,2.45,0,0,1,0,.27c0,.27.07.53.1.8.08.81.17,1.6.28,2.39L61,91c0,.24.08.46.11.7s.1.73.16,1.08.13.73.2,1.09.07.48.11.72h0c0,.16.07.31.1.47.14.71.28,1.41.44,2.1.06.26.1.53.16.79,0,.09,0,.17.07.25.21.9.44,1.78.68,2.65l.09.33v0c.28,1,.59,1.93.91,2.87,0,.06,0,.12.05.18.08.23.17.44.25.67.24.64.47,1.29.72,1.91,0,.12.09.25.14.37l.27.59c.25.6.51,1.19.78,1.76.15.32.3.63.46,1,.29.57.59,1.14.89,1.69.11.19.21.4.31.59l.14.22.17.31c.36.61.74,1.2,1.12,1.78.06.08.11.17.17.26.5.75,1,1.47,1.58,2.17l.12.16c.12.16.26.3.39.46.4.48.8.95,1.21,1.41l.65.69c.4.41.81.82,1.22,1.21.14.12.26.26.4.39l.29.24c.46.41.93.79,1.41,1.17.2.16.39.33.6.48.69.51,1.39,1,2.12,1.46l0,0,.48.29.48.28.48.27.49.27.4.2.39.2.4.19.4.19L106.81,138Z"/><path class="cls-14" d="M83.14,127c-.16-.09-.32-.18-.47-.28l-.48-.29,0,0c-.73-.46-1.43-1-2.12-1.47-.21-.15-.4-.32-.61-.48-.47-.37-.94-.76-1.4-1.16-.09-.09-.2-.16-.29-.25s-.26-.26-.4-.39c-.41-.39-.82-.79-1.22-1.2-.22-.23-.44-.46-.65-.7-.41-.45-.82-.92-1.21-1.41-.13-.15-.27-.3-.39-.46l-.12-.16c-.55-.7-1.08-1.42-1.58-2.17-.06-.08-.11-.17-.17-.26-.38-.58-.76-1.17-1.12-1.78l-.17-.3a1.64,1.64,0,0,0-.14-.22c-.1-.19-.2-.4-.31-.59-.3-.56-.6-1.12-.89-1.7-.16-.31-.31-.63-.46-.94-.27-.58-.53-1.17-.78-1.76-.09-.2-.19-.39-.27-.6l-.14-.36q-.37-.94-.72-1.92l-.25-.66c0-.06,0-.12,0-.18-.32-.94-.63-1.9-.91-2.88v0c0-.11-.06-.23-.09-.33-.24-.87-.47-1.75-.68-2.65,0-.09-.05-.17-.07-.25-.06-.26-.11-.53-.16-.79-.16-.7-.3-1.39-.44-2.1,0-.16-.07-.32-.1-.48h0c0-.23-.07-.48-.12-.71S64,94.33,63.93,94s-.1-.73-.16-1.09-.08-.46-.11-.7l-.06-.53c-.11-.78-.2-1.58-.28-2.38,0-.27-.07-.53-.1-.8a2.64,2.64,0,0,0,0-.28q-.16-1.74-.27-3.54v0a1.62,1.62,0,0,0,0-.22c-.06-1.12-.1-2.26-.13-3.42,0-.11,0-.21,0-.32s0-.45,0-.67c0-1.15,0-2.32,0-3.5v-.67c0-.15,0-.3,0-.45q0-2.18.18-4.41v-.13c0-.17,0-.34,0-.5.06-.9.12-1.8.19-2.71,0-.42.09-.85.13-1.27,0-.22,0-.43,0-.65s0-.41.07-.61c.14-1.46.31-2.94.5-4.43l0-.22v0c.21-1.65.47-3.32.74-5,0-.2.06-.4.1-.6s.08-.43.12-.65c.28-1.65.58-3.32.92-5,0,0,0-.07,0-.11v0c.34-1.72.73-3.46,1.13-5.2,0-.22.09-.43.14-.64s.12-.45.17-.67c.29-1.22.6-2.45.92-3.68l-2.39-3c-.48,1.78-.92,3.54-1.34,5.3-.05.22-.11.44-.17.66s-.09.43-.14.65c-.4,1.74-.79,3.48-1.13,5.19v0s0,.07,0,.1c-.34,1.69-.64,3.35-.92,5,0,.21-.09.43-.12.65s-.06.4-.09.6c-.28,1.68-.53,3.35-.75,5v0c0,.07,0,.14,0,.22-.2,1.49-.36,3-.51,4.43,0,.2,0,.4-.07.6s0,.44,0,.65c0,.43-.09.85-.12,1.27-.08.92-.14,1.82-.19,2.71,0,.17,0,.34,0,.5a.66.66,0,0,0,0,.14c-.09,1.49-.14,3-.18,4.41,0,.14,0,.3,0,.44s0,.45,0,.68c0,1.18,0,2.34,0,3.5,0,.22,0,.44,0,.66s0,.22,0,.33c0,1.15.07,2.29.13,3.42a1.48,1.48,0,0,1,0,.21v0c.07,1.2.17,2.38.27,3.55l0,.27c0,.27.06.53.09.8.08.81.18,1.6.28,2.39l.06.53.12.7c.05.36.09.73.15,1.08s.13.73.2,1.09.07.48.11.72h0c0,.16.07.31.1.48.14.7.29,1.4.44,2.09.06.26.1.53.16.79,0,.09,0,.17.07.25.21.9.44,1.78.69,2.65,0,.11,0,.22.08.33v0c.28,1,.59,1.93.91,2.87,0,.06,0,.12,0,.18.08.23.17.44.25.67.24.64.47,1.29.73,1.91,0,.12.08.25.13.37l.27.59c.25.6.51,1.19.78,1.76.15.32.31.63.46,1,.29.57.59,1.14.89,1.69.11.19.21.4.32.59s.09.15.13.22l.17.31c.36.61.74,1.2,1.13,1.78l.16.26c.5.75,1,1.47,1.58,2.17l.12.16c.12.16.26.3.39.46.4.48.8.95,1.21,1.41.21.24.43.46.65.69.4.41.81.82,1.22,1.21.14.12.26.26.4.39l.29.24c.46.41.93.79,1.41,1.17.2.16.4.33.6.48.69.52,1.39,1,2.12,1.46l0,0,.48.29.48.28.48.27.49.27.4.2.39.2.4.19.4.19.53.24Z"/><path class="cls-15" d="M197,259.65c.27-.55.51-1.1.74-1.65l.21-.5c.16-.4.31-.8.46-1.2.06-.19.13-.37.19-.56.15-.43.28-.86.41-1.29,0-.14.09-.28.13-.41.16-.57.3-1.14.43-1.71,0-.13,0-.26.08-.4.09-.44.18-.89.25-1.34L200,250c.06-.42.11-.83.16-1.25,0-.18,0-.36.05-.53,0-.59.09-1.18.11-1.77a32,32,0,0,0-.53-6.68c-.21-1.11-.48-2.2-.8-3.29a33.77,33.77,0,0,0-1.14-3.24l-7.51-18.44c.31.78.59,1.56.82,2.35a22.29,22.29,0,0,1,.58,2.38c.15.8.26,1.6.33,2.41s.08,1.62.06,2.44c0,.65-.08,1.3-.16,1.94,0,.15,0,.3-.05.45-.09.63-.2,1.26-.34,1.88,0,.08,0,.16-.05.23-.14.57-.3,1.14-.47,1.7-.05.13-.09.27-.13.41-.21.6-.44,1.21-.69,1.81l-.15.33c-.23.53-.49,1-.76,1.58l-.18.34c-.31.58-.65,1.16-1,1.73l-.24.38c-.34.52-.7,1-1.08,1.55-.06.07-.11.15-.17.23-.42.56-.88,1.11-1.35,1.66l-.33.39c-.48.54-1,1.08-1.49,1.6l0,0c-.53.54-1.1,1.07-1.67,1.6l-.41.37c-.58.51-1.18,1-1.8,1.53l-.2.16c-.58.46-1.18.92-1.79,1.37l-.45.33c-.67.49-1.36,1-2.06,1.43l-.38.24c-.64.42-1.29.82-2,1.23l-.45.27c-.75.44-1.52.88-2.31,1.31l-.51.27c-.72.39-1.46.77-2.21,1.14l-.37.19c-.84.41-1.7.81-2.57,1.2l-.61.27c-.85.38-1.71.75-2.6,1.11l-.15.07c-.92.37-1.86.73-2.82,1.09l-.67.25c-1,.35-1.93.69-2.92,1l-.25.08c-.87.29-1.75.57-2.65.84l-1.25.38c-.69.2-1.38.4-2.09.59l-1.25.34c-.77.21-1.54.4-2.32.59l-1.09.27c-1.15.27-2.31.54-3.49.79l-.13,0c-1.13.24-2.28.47-3.44.68l-1.19.21c-.82.15-1.65.29-2.48.42l-1.4.22-2.37.34-1.46.19-1.94.23c-.91.11-1.83.21-2.75.3l-1.81.17-2.84.22c-.59,0-1.17.09-1.76.12-1,.07-2.09.12-3.14.16-.51,0-1,.06-1.53.07-1.56.06-3.14.1-4.72.11l-24,38c2.19,0,4.36-.08,6.52-.16h.42l1.67-.08c1.46-.06,2.9-.13,4.34-.22l.81,0,1.62-.13c1.31-.09,2.62-.2,3.92-.31l1.16-.09,1.33-.14,3.79-.41,1.45-.16,1.24-.16,2-.26c1.1-.15,2.19-.31,3.28-.48l1.92-.29,1-.15L122,301l1.63-.28c1.6-.3,3.18-.61,4.74-.94l.18,0h0c1.62-.34,3.21-.7,4.79-1.08l1.5-.37c.79-.2,1.6-.38,2.38-.59l.83-.22,1.72-.48c1-.26,1.94-.54,2.89-.82l1.72-.51,1.1-.33,2.55-.83.35-.11q2-.69,4-1.41l.93-.34c1.32-.5,2.62-1,3.89-1.51l.22-.09c1.21-.5,2.4-1,3.58-1.53l.83-.37c1.21-.54,2.39-1.1,3.55-1.66l.14-.07c.7-.34,1.38-.69,2.06-1l.09,0,.35-.19,1.79-1,.71-.39,1.51-.86.68-.39,1.84-1.12.22-.14c.68-.42,1.34-.84,2-1.28l.56-.38c.47-.31.93-.63,1.38-.94l.63-.45,1.37-1,.47-.34c.59-.46,1.18-.91,1.74-1.37l.35-.29,1.33-1.12.23-.2.3-.27,1.13-1,.48-.45c.48-.45.94-.9,1.39-1.36l.11-.1c.48-.49,1-1,1.4-1.49.14-.14.27-.29.4-.44l.58-.65.37-.44.42-.5q.48-.58.93-1.17l.3-.39c.39-.51.77-1,1.13-1.55l.23-.35c.28-.41.55-.83.82-1.24l.32-.53c.23-.38.45-.76.67-1.14l.19-.33.09-.17c.28-.52.55-1,.81-1.57Z"/><path class="cls-16" d="M200.15,243.21a31.14,31.14,0,0,0-.45-3.32,32.14,32.14,0,0,0-.8-3.29,33.59,33.59,0,0,0-1.14-3.23l-7.51-18.45c.32.78.59,1.56.83,2.35s.43,1.58.58,2.38c0,.18.05.35.08.53l3.64,8.93a32.84,32.84,0,0,1,1.14,3.24c.32,1.09.59,2.18.8,3.28a28.62,28.62,0,0,1,.44,3.33,31.28,31.28,0,0,1,.09,3.36c0,.59-.06,1.18-.11,1.76,0,.18,0,.36-.05.54-.05.42-.1.83-.16,1.25l-.09.57c-.07.45-.16.89-.25,1.34,0,.13-.05.27-.08.4-.13.57-.27,1.14-.43,1.7,0,.14-.09.28-.13.42-.13.43-.26.86-.41,1.29-.06.19-.13.37-.19.55-.15.41-.3.81-.46,1.2l-.21.51c-.23.55-.47,1.1-.74,1.64l0,.07c-.26.52-.53,1.05-.81,1.56l-.09.18-.19.32c-.22.39-.44.77-.67,1.15l-.32.52c-.27.42-.54.84-.82,1.25-.08.11-.15.23-.23.35-.36.52-.74,1-1.13,1.55l-.3.39c-.3.39-.61.78-.93,1.16l-.42.51c-.13.14-.24.29-.37.44l-.58.65-.4.44c-.45.5-.92,1-1.4,1.48l-.11.11c-.45.45-.91.9-1.39,1.35l-.48.45c-.37.35-.75.68-1.13,1l-.3.27a2.11,2.11,0,0,1-.23.19c-.43.38-.88.75-1.33,1.13l-.34.28c-.57.46-1.16.92-1.75,1.37l-.46.35c-.46.34-.91.68-1.38,1l-.63.44c-.45.32-.91.64-1.38.95l-.56.38c-.65.43-1.31.86-2,1.28l-.22.14-1.84,1.11-.67.39-1.52.87-.71.39c-.59.32-1.18.64-1.79.95l-.35.19-.09.05-2.06,1-.14.06c-1.16.57-2.34,1.12-3.54,1.67l-.84.37c-1.18.52-2.37,1-3.58,1.53l-.22.09c-1.27.51-2.57,1-3.89,1.5l-.93.34c-1.32.49-2.66,1-4,1.42l-.35.11-2.55.83-1.09.32-1.73.52c-.95.28-1.92.55-2.89.82l-1.72.47-.83.23-2.38.59-1.5.37c-1.58.37-3.17.74-4.79,1.08h0l-.18,0q-2.34.5-4.74.93l-1.63.29-2.47.44-1,.14c-.63.11-1.28.2-1.92.3-1.09.17-2.18.32-3.28.47l-2,.27-1.24.16-1.45.16c-1.26.14-2.52.28-3.79.4l-1.33.15-1.16.09-3.92.31c-.54,0-1.07.09-1.62.12l-.81.05-4.33.22-1.68.08h-.42l-1.37,0-2.77,4.38c2.19,0,4.36-.08,6.52-.15H90l1.68-.09c1.45-.06,2.9-.13,4.33-.22l.81,0,1.62-.13c1.32-.09,2.62-.19,3.92-.31l1.17-.09,1.32-.14c1.27-.13,2.54-.26,3.79-.41.48-.05,1-.09,1.46-.15l1.24-.17,2-.26,3.28-.47,1.93-.3,1-.15,2.47-.43,1.63-.29c1.6-.3,3.18-.61,4.74-.94l.18,0h0c1.62-.34,3.21-.7,4.79-1.08l1.5-.37c.8-.19,1.6-.38,2.38-.59l.83-.22,1.73-.47,2.88-.82,1.73-.52,1.09-.33,2.55-.83.35-.11c1.37-.45,2.7-.93,4-1.41l.92-.34c1.32-.49,2.62-1,3.9-1.51l.21-.09c1.22-.5,2.41-1,3.58-1.53l.84-.37c1.2-.54,2.39-1.09,3.54-1.66l.15-.07c.69-.34,1.38-.69,2.05-1l.09,0,.36-.19c.6-.32,1.19-.63,1.78-1l.71-.39L172,284l.67-.39c.62-.37,1.24-.74,1.84-1.12l.23-.13,2-1.28.57-.38,1.38-.95.62-.45c.47-.33.93-.67,1.38-1l.46-.35c.6-.45,1.18-.91,1.75-1.37l.34-.29c.46-.37.9-.74,1.34-1.12a2.11,2.11,0,0,1,.23-.19l.29-.27c.39-.34.76-.68,1.13-1l.48-.45c.48-.45.94-.9,1.4-1.36l.1-.1c.48-.49,1-1,1.41-1.49l.39-.44c.2-.21.39-.43.58-.64l.37-.45c.14-.17.29-.33.42-.5q.48-.58.93-1.17c.1-.13.21-.25.3-.38.39-.52.77-1,1.13-1.56.08-.11.16-.23.23-.35.29-.41.56-.82.82-1.24.11-.18.22-.35.32-.53.23-.38.46-.76.67-1.14l.19-.33a.91.91,0,0,0,.09-.17c.29-.52.56-1,.81-1.57l0-.06c.26-.55.5-1.1.74-1.65l.2-.5c.16-.4.31-.8.46-1.2.07-.18.13-.37.2-.55.14-.43.28-.87.41-1.3l.12-.41c.16-.57.3-1.13.43-1.7,0-.14.06-.27.08-.41.1-.44.18-.89.26-1.33,0-.2.06-.39.08-.58.06-.41.12-.83.16-1.25,0-.17,0-.35.05-.53,0-.59.09-1.17.11-1.77A31.41,31.41,0,0,0,200.15,243.21Z"/><path class="cls-17" d="M213.25.18a169,169,0,0,1,119.91,104,219.35,219.35,0,0,0-21.74-14.65,178,178,0,0,0-21.34-10.77,127.65,127.65,0,0,0-20.22-6.64,82,82,0,0,0-18.33-2.26,55.48,55.48,0,0,0-8.6.64,42.26,42.26,0,0,0-7.77,1.94,35,35,0,0,0-6.83,3.27,31.25,31.25,0,0,0-5.79,4.65c-6,6.1-9.12,14.35-9.72,24.07s1.35,20.88,5.61,32.81a169,169,0,0,0,19.44,37.31,241.7,241.7,0,0,0,31.73,37.58q6.19,6,12.56,11.41c4.23,3.6,8.51,7,12.8,10.17s8.6,6.14,12.89,8.88,8.59,5.25,12.84,7.54A169,169,0,0,1,175.2,332.66a171.2,171.2,0,0,1-25.37-1.88A168.65,168.65,0,0,1,81.89,304.7a234.54,234.54,0,0,0,45.64-4.78,159.61,159.61,0,0,0,37.18-12.33c10.59-5.19,19.18-11.37,25.19-18.27s9.42-14.54,9.66-22.62c.25-8.51-3-16.71-9.2-24.27S175.17,208,163.94,202.06a170.53,170.53,0,0,0-39.66-14.38,243.65,243.65,0,0,0-48.91-6.28l-1.92-.05-1.91,0-1.9,0h-1.9c-5.45,0-10.82.17-16.08.51s-10.4.83-15.41,1.48-9.9,1.44-14.63,2.39-9.3,2-13.69,3.24q-.45-3-.78-6.06t-.57-6.13c-.15-2.06-.26-4.12-.34-6.2s-.11-4.15-.11-6.25a168.13,168.13,0,0,1,4.2-37.45,166.07,166.07,0,0,1,12-34.5A167.85,167.85,0,0,1,41.14,61.67,169.76,169.76,0,0,1,65.91,35.81a173.36,173.36,0,0,0-5.5,30.4,109.64,109.64,0,0,0,.72,26.34,58.67,58.67,0,0,0,7,20.55,33.83,33.83,0,0,0,13.3,13,30.94,30.94,0,0,0,3.67,1.65,33.36,33.36,0,0,0,3.84,1.16,35.12,35.12,0,0,0,4,.68,35.63,35.63,0,0,0,4.16.23c7.53,0,15.7-2.14,24.16-6.15a117.1,117.1,0,0,0,25.84-17.41,190.54,190.54,0,0,0,25.33-27.09A245.46,245.46,0,0,0,195.08,44q2.94-5.53,5.54-11.07t4.88-11q2.28-5.5,4.21-10.94T213.25.18Z"/><path class="cls-18" d="M165,94.33a190.65,190.65,0,0,0,30.1-21.55,246.2,246.2,0,0,0,29.07-30q4-4.84,7.6-9.75t6.95-9.86Q242,18.21,245,13.25c.31-.51,1.15-1.22,1.44-1.73A170.68,170.68,0,0,0,212.53,0c-1.06,3.56-2.41,7.31-3.69,10.94s-2.69,7.27-4.19,10.93-3.13,7.35-4.86,11-3.58,7.38-5.53,11.07a246,246,0,0,1-22.55,35.18c-6.14,8-12.49,16.4-19,22.68C156.77,100.05,160.82,96.7,165,94.33Z"/><path class="cls-19" d="M8.05,139.09c.27-2,.58-3.93.93-5.89s.73-3.94,1.16-5.91A153.9,153.9,0,0,1,22.06,92.84,159.78,159.78,0,0,1,40.89,62.35c1.3-1.61,3-4.2,4.34-5.76C42.05,59.84,39,64.51,36.1,68A160.54,160.54,0,0,0,16.68,97.42,152.68,152.68,0,0,0,4.33,130.55a151.11,151.11,0,0,0-4.33,36q0,3,.12,6c.08,2,.19,4,.35,6s.35,3.93.58,5.88.8,4.24,1.11,6.17c4.53-1.17,9.13-2.25,14-3.15s9.72-2,14.89-2.61,10.47-1.1,15.89-1.42,11-.48,16.58-.48h2l2,0,2,0,2,.05a269.48,269.48,0,0,1,50.43,6,184.39,184.39,0,0,1,40.89,13.81,98.27,98.27,0,0,1,21.65,14c-4.68-8.23-12.37-16.4-22.47-24.05a178,178,0,0,0-37.14-21,264,264,0,0,0-48.14-15.16l-1.93-.41-1.92-.4-1.92-.38L68.93,155q-8.27-1.56-16.35-2.57t-15.89-1.53c-5.2-.33-10.3-.51-15.27-.51s-9.82.14-14.51.46"/><path class="cls-20" d="M295,233.73q-6.42-4.77-12.75-10.17t-12.5-11.4a246.76,246.76,0,0,1-28.57-32.89s0,0,0,0a242.24,242.24,0,0,0,23.71,43q4.85,7.11,10,13.66t10.48,12.49q5.34,5.94,10.83,11.25t11,9.86a169.66,169.66,0,0,0,13.46-19.4q-6.36-3.42-12.79-7.54T295,233.73Z"/><path class="cls-21" d="M274.34,297.56A169.17,169.17,0,0,1,123.4,315.22,167.42,167.42,0,0,1,100.77,305c-.55-.29-1.09-.61-1.63-.92q-8.61.69-17.6.79a168,168,0,0,0,68,26.25A171.23,171.23,0,0,0,174.89,333,168.56,168.56,0,0,0,294,283.9a166.75,166.75,0,0,0,12.32-13A168.69,168.69,0,0,1,274.34,297.56Z"/></g></g></svg>